<?xml version="1.0" encoding="utf-8"?>
<!-- Generator: Adobe Illustrator 22.1.0, SVG Export Plug-In . SVG Version: 6.00 Build 0)  -->
<svg version="1.1" id="图层_1" xmlns="http://www.w3.org/2000/svg" xmlns:xlink="http://www.w3.org/1999/xlink" x="0px" y="0px"
	 viewBox="0 0 103.7 117.3" style="enable-background:new 0 0 103.7 117.3;" xml:space="preserve">
<style type="text/css">
	.st0{fill:#E6181B;}
</style>
<path class="st0" d="M28.1,60c0.1-2.8-0.8-5.2-2.3-7.4c-6-9.2-10.8-18.9-14.3-29.2c-0.9-2.6-1.6-5.2-0.6-8c1.2-3.5,3.8-5.4,7.2-6.1
	c3.4-0.7,6.1,0.9,8.1,3.6c2.2,2.9,3.8,6.1,5.6,9.2c3.1,5.4,6,10.9,8.8,16.3c1.2,2.4,2.4,2.4,4.2,0.4C51,31.8,57.9,26,66,21.5
	c5.1-2.8,10.5-5,16.1-6.5c2.5-0.7,5.2-0.9,7.8-0.6c1.1,0.1,2.3,0,3.4,0.4c1.7,0.6,2.7,1.7,3,3.4c0.3,1.8-0.8,2.8-2,3.6
	c-3.1,2.1-6.4,3.7-9.6,5.6c-4.4,2.5-8.5,5.3-12.3,8.6c-2.2,1.9-4.3,3.8-6.3,5.9c-4.3,4.6-8.1,9.6-11.5,14.9c-1.4,2.2-1.3,4.5,0,6.8
	c2.8,4.6,6,8.8,9.6,12.8c6.5,7.2,14.1,12.9,22.4,17.8c2.5,1.4,5.1,2.5,7.5,4c1.4,0.8,2.4,2,2.2,3.8c-0.3,1.9-1.3,3.3-3.2,3.9
	c-2.1,0.7-4.2,0.4-6.3,0.2c-6.6-0.8-12.8-2.9-18.7-6c-5-2.6-9.5-5.9-13.9-9.4c-3.1-2.5-6-5.1-8.7-8c-0.8-0.9-1.7-1.8-2.5-2.7
	c-0.5-0.6-0.8-0.7-1.3,0.1c-3,5.6-6,11.2-9.1,16.7c-1.9,3.4-3.6,7-5.9,10.1c-1.9,2.6-4.4,4.6-7.9,4.2c-4.8-0.6-9.1-4.2-8.2-10
	c0.6-4.1,2.2-8,3.8-11.9c3.2-7.5,7.1-14.6,11.3-21.5C27.2,65.3,28.3,62.7,28.1,60z"/>
</svg>
