<?xml version="1.0" encoding="utf-8"?>
<!-- Generator: Adobe Illustrator 22.1.0, SVG Export Plug-In . SVG Version: 6.00 Build 0)  -->
<svg version="1.1" id="Layer_1" xmlns="http://www.w3.org/2000/svg" xmlns:xlink="http://www.w3.org/1999/xlink" x="0px" y="0px"
	 viewBox="0 0 480 480" style="enable-background:new 0 0 480 480;" xml:space="preserve">
<style type="text/css">
	.st0{fill:#FFFFFF;stroke:#000000;stroke-width:4;stroke-miterlimit:10;}
	.st1{fill:none;stroke:#140306;stroke-width:3;stroke-miterlimit:10;}
	.st2{fill:#231815;stroke:#231815;stroke-linecap:round;stroke-miterlimit:10;}
	.st3{fill:none;stroke:#231815;stroke-linecap:round;stroke-miterlimit:10;}
	.st4{fill:#FFFFFF;stroke:#231815;stroke-width:3;stroke-linecap:round;stroke-miterlimit:10;}
</style>
<path class="st0" d="M305.3,342.4c-7.3-38-3.1-75-3.1-79c0-3.4,21.1-12.8,33.6-22.5c10-8.5,15.6-22.8,21.9-39.7
	c3.7-14.6,0.9-48-7.3-63.7c-3.8-7.2-19.9-34.7-35.1-41.4c-18.8-8.3-63.3-5.6-82.3-5.3c-19.5,0.4-34.5,5-57.5,17.5
	s-32.3,34.7-37.5,46.5c-3,13.3-2.3,23.3-2,40c-1.3,28.3,9.3,32.6,16.5,42.3c6.3,8.5,17,14.8,30.3,20.8l-6,44
	c-2.3,17.2-3.3,27.9-4.9,40.5"/>
<path class="st1" d="M249.2,205.6c-0.7,4.9,3.9,14,15.5,13.8c10.3-0.1,20.3-4.8,22.6-9.9c0.9-1.9,1.9-7.8-1.4-10.8
	c-4.3-3.9-14.7-4.4-20.4-4.5C258.8,194,250.1,198.8,249.2,205.6"/>
<path class="st2" d="M320.7,158.4c-0.1,6.8-3.6,14.1-12.6,13.8c-9.4-0.2-15.3-5.8-14.6-13.8c0.8-9.4,7-13.8,13.9-13.8
	C314.1,144.6,320.8,148.8,320.7,158.4z"/>
<path class="st2" d="M244.3,156.4c0.3,9-6.7,14.5-13.5,14.5s-13.6-4.9-14-14.5c-0.3-6.8,6.9-13.3,12.9-13.4
	C237.4,143.1,243.9,148.9,244.3,156.4z"/>
<path class="st3" d="M320.7,158.4c-0.1,6.8-3.6,14.1-12.6,13.8c-9.4-0.2-15.3-5.8-14.6-13.8c0.8-9.4,7-13.8,13.9-13.8
	C314.1,144.6,320.8,148.8,320.7,158.4z"/>
<path class="st3" d="M244.3,156.4c0.3,9-6.7,14.5-13.5,14.5s-13.6-4.9-14-14.5c-0.3-6.8,6.9-13.3,12.9-13.4
	C237.4,143.1,243.9,148.9,244.3,156.4z"/>
<path class="st4" d="M302,271.9c4,43.5,2.7,66-7,66s-22.8-10-24.3-60"/>
<path class="st4" d="M214.5,276.4c4,45.5,0.2,63-9.5,63s-18.5-11.5-18-63.5"/>
</svg>
