<?xml version="1.0" encoding="utf-8"?>
<!-- Generator: Adobe Illustrator 22.1.0, SVG Export Plug-In . SVG Version: 6.00 Build 0)  -->
<svg version="1.1" id="Layer_1" xmlns="http://www.w3.org/2000/svg" xmlns:xlink="http://www.w3.org/1999/xlink" x="0px" y="0px"
	 viewBox="0 0 480 480" style="enable-background:new 0 0 480 480;" xml:space="preserve">
<style type="text/css">
	.st0{fill:#FFFFFF;stroke:#000000;stroke-width:4;stroke-miterlimit:10;}
	.st1{fill:none;stroke:#140306;stroke-width:3;stroke-miterlimit:10;}
	.st2{fill:#231815;stroke:#231815;stroke-linecap:round;stroke-miterlimit:10;}
	.st3{fill:none;stroke:#231815;stroke-linecap:round;stroke-miterlimit:10;}
	.st4{fill:#FFFFFF;stroke:#231815;stroke-width:3;stroke-linecap:round;stroke-miterlimit:10;}
</style>
<path class="st0" d="M305.8,342.1c-7.3-38-3.1-75-3.1-79c0-3.4,21.1-12.8,33.6-22.5c10-8.5,16.2-14.8,22.5-31.7
	c3.7-14.6,8.4-47.6,0.2-63.3c-3.8-7.2-15.3-36.8-30.5-43.5c-18.8-8.3-60-12.8-79-12.5C230,90,199,95.6,176,108.1
	s-30.1,27.7-35.3,39.5c-5,9.3-2.1,17.2-3.6,37.2c1.7,26,5.9,36.7,13.1,46.3c6.3,8.5,19.8,20.5,33.1,26.5l-6,44
	c-2.3,17.2-3.3,27.9-4.9,40.5"/>
<path class="st1" d="M240.5,204.5c5.2,1.6,17.6,2.1,29.3,1.9c10.3-0.1,22.2-0.6,25.8-1.1l-0.2-2.5c-4,0.3-18.3,1-26.2,1
	c-10.2,0.1-22.2-0.6-28-2"/>
<path class="st2" d="M316.6,158.8c0,6.8-1.9,12.7-9.2,12.2c-6.8-0.5-9-5.4-9-12.2s2.4-13,9.2-13C314.4,145.9,316.6,152,316.6,158.8z
	"/>
<path class="st2" d="M240,156.1c0.3,9-3.6,12.7-10.4,12.7s-9.4-5.6-9.4-12.4s4.6-12.6,9.4-12.2C236.3,144.7,239.7,148.6,240,156.1z"
	/>
<path class="st3" d="M316.6,158.8c0,6.8-1.9,12.7-9.2,12.2c-6.8-0.5-9-5.4-9-12.2s2.4-13,9.2-13C314.4,145.9,316.6,152,316.6,158.8z
	"/>
<path class="st3" d="M240,156.1c0.3,9-3.6,12.7-10.4,12.7s-9.4-5.6-9.4-12.4s4.6-12.6,9.4-12.2C236.3,144.7,239.7,148.6,240,156.1z"
	/>
<path class="st4" d="M302,271.9c4,43.5,2.7,66-7,66s-22.8-10-24.3-60"/>
<path class="st4" d="M214.5,276.4c4,45.5,0.2,63-9.5,63s-18.5-11.5-18-63.5"/>
</svg>
