<?xml version="1.0" encoding="utf-8"?>
<!-- Generator: Adobe Illustrator 22.1.0, SVG Export Plug-In . SVG Version: 6.00 Build 0)  -->
<svg version="1.1" id="Layer_1" xmlns="http://www.w3.org/2000/svg" xmlns:xlink="http://www.w3.org/1999/xlink" x="0px" y="0px"
	 viewBox="0 0 480 480" style="enable-background:new 0 0 480 480;" xml:space="preserve">
<style type="text/css">
	.st0{fill:#FFFFFF;stroke:#000000;stroke-width:4;stroke-miterlimit:10;}
	.st1{fill:none;stroke:#140306;stroke-width:3;stroke-miterlimit:10;}
	.st2{fill:#231815;stroke:#231815;stroke-linecap:round;stroke-miterlimit:10;}
	.st3{fill:none;stroke:#231815;stroke-linecap:round;stroke-miterlimit:10;}
	.st4{fill:#FFFFFF;stroke:#231815;stroke-width:3;stroke-linecap:round;stroke-miterlimit:10;}
</style>
<path class="st0" d="M305.3,336.9c-7.3-38-2.3-68.7-2.3-72.7c0-3.4,17.8-15.4,30.3-25.1c7.2-8.7,15.3-13.3,22.5-31
	c6.3-14.5,8.4-44.9,0.3-60.6c-3.8-7.2-16.1-32.4-31.8-41.3c-18.8-8.3-35.2-16.7-74.7-16.7C230,90,197.4,93,176,108.1
	c-21,14.8-24.7,26.5-27.7,38.8c-2,14-2.3,28.3-1,42.3c0.8,17.3,8,28.6,15.3,38.3c6.3,8.5,11.5,25.3,24.8,31.3l-7.5,46
	c-2.3,17.2-0.9,18.9-2.5,31.5"/>
<path class="st1" d="M240,200.9c0.1,3.1,0.2,8,4.3,11.7c4,3.6,7.3,5.1,13,5c7.3-0.1,9.2-1.5,12.8-5.4c3.8-4.1,2.4-11.8,2.4-11.8
	s-8.3,0.1-16.2,0.1C245.8,200.5,246.5,200.9,240,200.9"/>
<path class="st2" d="M305.2,156.6c0,6.8-3.9,7.5-11.2,7c-6.8-0.5-13.7-0.9-13.7-7.7s6-10.8,12.8-10.8
	C300,145.2,305.2,149.8,305.2,156.6z"/>
<path class="st2" d="M233.7,154.6c0.3,9-7.4,7.3-14.2,7.3s-13.5-0.2-13.5-7s8-11.7,12.8-11.3C225.5,144.1,233.4,147.1,233.7,154.6z"
	/>
<path class="st3" d="M305.2,156.6c0,6.8-3.9,7.5-11.2,7c-6.8-0.5-13.7-0.9-13.7-7.7s6-10.8,12.8-10.8
	C300,145.2,305.2,149.8,305.2,156.6z"/>
<path class="st3" d="M233.7,154.6c0.3,9-7.4,7.3-14.2,7.3s-13.5-0.2-13.5-7s8-11.7,12.8-11.3C225.5,144.1,233.4,147.1,233.7,154.6z"
	/>
<path class="st4" d="M298,310.6c20.8-15,39.8-31,47-38.2c4.7-4.7,14.1-10.5,15-22.5c0.2-2.4,2.7-14-5.5-14.8
	c-10-0.6-64.5,27.7-63.5,27.1"/>
<path class="st4" d="M201.3,262.2c-22.5-27.8-45.6-36.8-55.3-36.8c-3.6,0-8,5-8.3,15.3c-0.1,5.8,3.2,15.7,8.3,24.5
	c9.6,16.7,31.4,39.6,43,50.8"/>
</svg>
